<svg height="417pt" viewBox="0 -4 417.05644 417" width="417pt" xmlns="http://www.w3.org/2000/svg"><path d="m271.140625 95.601562c0 33.933594-27.507813 61.441407-61.4375 61.441407-33.933594 0-61.441406-27.507813-61.441406-61.441407 0-33.933593 27.507812-61.441406 61.441406-61.441406 33.929687 0 61.4375 27.507813 61.4375 61.441406zm0 0" fill="#ffd578"/><path d="m271.140625 95.601562h6.828125c-.003906-37.707031-30.558594-68.261718-68.265625-68.265624-37.707031.003906-68.265625 30.558593-68.269531 68.265624.003906 37.703126 30.5625 68.261719 68.269531 68.261719 37.703125 0 68.261719-30.558593 68.265625-68.261719h-13.652344c-.003906 15.101563-6.101562 28.714844-16 38.617188-9.902344 9.894531-23.511718 15.988281-38.613281 15.996094-15.105469-.007813-28.714844-6.101563-38.621094-15.996094-9.890625-9.902344-15.992187-23.515625-15.996093-38.617188.003906-15.105468 6.101562-28.714843 15.996093-38.621093 9.90625-9.894531 23.515625-15.988281 38.621094-15.996094 15.101563.007813 28.710937 6.101563 38.613281 15.996094 9.894532 9.90625 15.992188 23.511719 16 38.621093zm0 0" fill="#54596e"/><path d="m209.703125 402.800781-13.65625-75.09375h27.308594zm0 0" fill="#fff35f"/><path d="m209.703125 402.800781 6.714844-1.222656-12.191407-67.042969h10.945313l-12.191406 67.042969 6.722656 1.222656 6.714844-1.222656-6.714844 1.222656 6.714844 1.222657 13.652343-75.09375c.363282-1.996094-.175781-4.042969-1.476562-5.597657-1.296875-1.554687-3.214844-2.449219-5.242188-2.449219h-27.304687c-2.027344 0-3.945313.894532-5.242187 2.449219-1.296876 1.554688-1.835938 3.601563-1.476563 5.597657l13.652344 75.09375c.589843 3.242187 3.421875 5.601562 6.71875 5.601562s6.128906-2.359375 6.714843-5.601562zm0 0" fill="#54596e"/><path d="m100.0625 292.714844c21.324219-21.328125 91.710938-168.945313 91.710938-168.945313s-147.617188 70.386719-168.945313 91.710938c-21.332031 21.328125-21.332031 55.90625 0 77.234375 21.328125 21.332031 55.90625 21.332031 77.234375 0zm0 0" fill="#fff"/><g fill="#54596e"><path d="m100.0625 292.714844 4.824219 4.828125c3.339843-3.367188 6.84375-8.210938 10.953125-14.480469 14.226562-21.820312 34.609375-60.707031 51.613281-94.390625 16.980469-33.652344 30.46875-61.9375 30.484375-61.96875 1.238281-2.605469.703125-5.722656-1.335938-7.765625-2.042968-2.039062-5.160156-2.578125-7.765624-1.332031-.035157.015625-36.976563 17.628906-76.648438 37.941406-19.839844 10.160156-40.359375 20.988281-57.347656 30.671875-8.496094 4.84375-16.109375 9.398438-22.363282 13.476562-6.273437 4.113282-11.109374 7.617188-14.476562 10.953126-11.988281 11.980468-18.0078125 27.746093-18 43.449218-.0078125 15.699219 6.011719 31.460938 18 43.441406 11.976562 11.988282 27.742188 18.007813 43.445312 17.996094 15.699219.011719 31.464844-6.015625 43.441407-17.996094l-9.652344-9.652343c-9.351563 9.34375-21.539063 13.992187-33.789063 14-12.253906-.007813-24.441406-4.65625-33.789062-14-9.347656-9.347657-13.992188-21.539063-14-33.789063.007812-12.253906 4.652344-24.441406 14-33.789062 1.964844-1.996094 6.402344-5.359375 12.285156-9.175782 20.722656-13.539062 59.617188-33.976562 93.078125-50.859374 16.75-8.449219 32.179688-16.042969 43.421875-21.515626 5.617188-2.738281 10.1875-4.945312 13.355469-6.46875 3.164063-1.523437 4.910156-2.359374 4.917969-2.359374l-2.9375-6.160157-6.164063-2.941406c-.003906.007813-1.09375 2.289063-3.054687 6.355469-6.863282 14.238281-24.339844 50.171875-42.390625 84.800781-9.023438 17.3125-18.191407 34.300781-26.210938 48.027344-4.007812 6.863281-7.730469 12.910156-10.964843 17.730469-3.207032 4.804687-6.023438 8.429687-7.757813 10.144531zm0 0"/><path d="m271.089844.0273438c-.441406.03125-11.246094.0390624-22.859375 4.4257812-5.792969 2.214844-11.898438 5.574219-16.757813 11.027344-4.871094 5.417969-8.167968 13.082031-8.121094 22.253906 0 3.769531 3.058594 6.828125 6.828126 6.828125 3.769531 0 6.828124-3.058594 6.828124-6.828125.046876-6.113281 1.871094-9.949219 4.679688-13.191406 4.183594-4.820313 11.539062-7.863281 18.03125-9.328125 3.222656-.75 6.175781-1.136719 8.277344-1.332032 1.050781-.101562 1.890625-.152343 2.445312-.179687l.613282-.023437.136718-.003907c3.769532-.03125 6.800782-3.109375 6.773438-6.875-.03125-3.769531-3.109375-6.800781-6.878906-6.769531zm0 0"/><path d="m148.207031 13.679688h.039063c.746094-.011719 10.367187.363281 18.894531 3.855468 4.273437 1.722656 8.171875 4.160156 10.835937 7.3125 2.652344 3.183594 4.375 6.964844 4.417969 12.886719 0 3.769531 3.058594 6.828125 6.828125 6.828125 3.769532 0 6.824219-3.058594 6.824219-6.828125.050781-9.171875-3.25-16.835937-8.117187-22.253906-7.335938-8.15625-17.261719-11.695313-25.167969-13.566407-7.949219-1.8320308-14.125-1.8789058-14.445313-1.882812-3.773437-.03125-6.851562 3.003906-6.882812 6.773438-.027344 3.769531 3.003906 6.847656 6.773437 6.878906zm0 0"/></g><path d="m209.703125 341.363281c-41.476563 0-75.09375-33.621093-75.09375-75.09375v-95.574219c0-41.472656 33.617187-75.09375 75.09375-75.09375 41.472656 0 75.089844 33.621094 75.089844 75.09375v95.574219c0 41.472657-33.617188 75.09375-75.089844 75.09375zm0 0" fill="#fff35f"/><path d="m209.703125 341.363281v-6.828125c-18.875-.007812-35.898437-7.632812-48.273437-19.996094-12.363282-12.378906-19.992188-29.402343-19.996094-48.269531v-95.574219c.003906-18.875 7.632812-35.898437 19.996094-48.273437 12.375-12.363281 29.398437-19.992187 48.273437-19.996094 18.871094.003907 35.894531 7.632813 48.269531 19.996094 12.363282 12.375 19.992188 29.402344 19.996094 48.273437v95.574219c-.003906 18.871094-7.632812 35.890625-19.996094 48.269531-12.375 12.363282-29.398437 19.988282-48.269531 19.996094v13.648438c45.242187-.003906 81.914063-36.671875 81.917969-81.914063v-95.574219c-.003906-45.246093-36.675782-81.917968-81.917969-81.921874-45.246094.003906-81.917969 36.675781-81.921875 81.921874v95.574219c.003906 45.242188 36.675781 81.910157 81.921875 81.914063zm0 0" fill="#54596e"/><path d="m209.703125 314.054688c-18.761719 0-36.621094 1.949218-53.027344 5.378906 13.585938 13.546875 32.324219 21.929687 53.027344 21.929687 20.699219 0 39.4375-8.382812 53.023437-21.929687-16.40625-3.429688-34.265624-5.378906-53.023437-5.378906zm0 0" fill="#999"/><path d="m209.703125 314.054688v-6.828126c-19.234375 0-37.554687 1.996094-54.425781 5.523438-2.453125.511719-4.433594 2.335938-5.148438 4.738281-.710937 2.398438-.046875 5.007813 1.726563 6.78125 14.796875 14.765625 35.285156 23.921875 57.847656 23.914063 22.558594.007812 43.046875-9.148438 57.847656-23.914063 1.769531-1.773437 2.433594-4.382812 1.722657-6.78125-.714844-2.402343-2.695313-4.230469-5.144532-4.738281-16.875-3.527344-35.191406-5.523438-54.425781-5.523438v13.652344c18.285156 0 35.6875 1.898438 51.628906 5.234375l1.398438-6.679687-4.820313-4.835938c-12.375 12.328125-29.367187 19.929688-48.207031 19.9375-18.839844-.007812-35.832031-7.609375-48.207031-19.9375l-4.820313 4.835938 1.398438 6.679687c15.941406-3.335937 33.34375-5.234375 51.628906-5.234375zm0 0" fill="#54596e"/><path d="m134.609375 175.070312v34.144532c21.859375-7.066406 47.519531-11.210938 75.09375-11.210938 27.570313 0 53.230469 4.148438 75.089844 11.210938v-34.144532c-21.832031-7.082031-47.519531-11.199218-75.089844-11.199218-27.574219 0-53.261719 4.117187-75.09375 11.199218zm0 0" fill="#999"/><path d="m134.609375 175.070312h-6.828125v34.144532c0 2.191406 1.039062 4.230468 2.8125 5.519531 1.769531 1.289063 4.03125 1.648437 6.113281.972656 21.117188-6.828125 46.105469-10.882812 72.996094-10.882812 26.886719 0 51.875 4.054687 72.992187 10.882812 2.085938.675781 4.34375.316407 6.117188-.972656 1.769531-1.289063 2.808594-3.328125 2.808594-5.519531v-34.144532c0-2.972656-1.894532-5.582031-4.71875-6.5-22.589844-7.320312-48.945313-11.527343-77.199219-11.527343-28.257813 0-54.613281 4.207031-77.199219 11.527343-2.828125.914063-4.722656 3.527344-4.722656 6.5h6.828125l2.105469 6.492188c21.078125-6.839844 46.09375-10.871094 72.988281-10.871094 26.890625 0 51.90625 4.03125 72.984375 10.871094l2.105469-6.492188h-6.824219v34.144532h6.824219l2.101562-6.496094c-22.605469-7.304688-48.933593-11.542969-77.191406-11.542969-28.261719 0-54.59375 4.238281-77.195313 11.542969l2.101563 6.496094h6.824219v-34.144532h-6.824219l2.105469 6.492188zm0 0" fill="#54596e"/><path d="m284.792969 250.164062c-21.832031-7.082031-47.519531-11.199218-75.089844-11.199218-27.574219 0-53.261719 4.117187-75.09375 11.199218v16.105469c0 5.988281.773437 11.785157 2.097656 17.375 21.398438-6.652343 46.300781-10.546875 72.996094-10.546875 26.691406 0 51.589844 3.890625 72.992187 10.546875 1.328126-5.585937 2.097657-11.386719 2.097657-17.375zm0 0" fill="#999"/><path d="m284.792969 250.164062 2.109375-6.5c-22.589844-7.320312-48.945313-11.527343-77.199219-11.527343-28.257813 0-54.613281 4.207031-77.199219 11.527343-2.828125.914063-4.722656 3.527344-4.722656 6.5v16.105469c0 6.574219.851562 12.910157 2.285156 18.953125.4375 1.84375 1.613282 3.410156 3.261719 4.351563 1.652344.941406 3.59375 1.152343 5.40625.585937 20.6875-6.433594 44.9375-10.238281 70.96875-10.238281 26.027344 0 50.273437 3.804687 70.964844 10.238281 1.8125.566406 3.753906.355469 5.40625-.585937 1.652343-.941407 2.824219-2.507813 3.261719-4.351563 1.4375-6.042968 2.285156-12.378906 2.285156-18.953125v-16.105469c0-2.972656-1.894532-5.585937-4.71875-6.5l-2.109375 6.5h-6.824219v16.105469c0 5.398438-.695312 10.660157-1.914062 15.792969l6.640624 1.582031 2.027344-6.519531c-22.109375-6.875-47.660156-10.851562-75.019531-10.851562s-52.910156 3.976562-75.019531 10.851562l2.027344 6.519531 6.640624-1.582031c-1.21875-5.132812-1.914062-10.394531-1.914062-15.792969v-16.105469h-6.824219l2.105469 6.492188c21.078125-6.839844 46.09375-10.871094 72.984375-10.871094 26.894531 0 51.910156 4.03125 72.988281 10.871094l2.101563-6.492188h-6.824219zm0 0" fill="#54596e"/><path d="m209.703125 122.910156c22.839844 0 44.34375 2.867188 63.511719 7.84375-13.300782-21.089844-36.738282-35.152344-63.511719-35.152344-26.777344 0-50.214844 14.058594-63.515625 35.152344 19.167969-4.976562 40.671875-7.84375 63.515625-7.84375zm0 0" fill="#999"/><path d="m209.703125 122.910156v6.820313c22.265625 0 43.214844 2.800781 61.796875 7.632812 2.710938.703125 5.570312-.320312 7.226562-2.582031 1.652344-2.261719 1.757813-5.300781.261719-7.667969-14.476562-22.984375-40.082031-38.339843-69.285156-38.339843-29.210937 0-54.8125 15.355468-69.289063 38.339843-1.496093 2.367188-1.390624 5.40625.261719 7.667969 1.652344 2.261719 4.515625 3.285156 7.226563 2.582031 18.582031-4.832031 39.527344-7.632812 61.796875-7.632812v-13.648438c-23.410157 0-45.476563 2.933594-65.230469 8.0625l1.71875 6.609375 5.773438 3.640625c12.125-19.203125 33.398437-31.96875 57.738281-31.96875 24.339843 0 45.617187 12.765625 57.738281 31.96875l5.777344-3.640625 1.714844-6.609375c-19.75-5.128906-41.816407-8.0625-65.230469-8.0625v6.828125zm0 0" fill="#54596e"/><path d="m100.0625 292.714844c21.324219-21.328125 78.058594-168.945313 78.058594-168.945313s-133.964844 70.386719-155.292969 91.710938c-21.332031 21.328125-21.332031 55.90625 0 77.234375 21.328125 21.332031 55.90625 21.332031 77.234375 0zm0 0" fill="#fff"/><path d="m317 292.714844c-21.324219-21.328125-78.066406-168.945313-78.066406-168.945313s133.976562 70.386719 155.300781 91.710938c21.328125 21.328125 21.328125 55.90625 0 77.234375-21.324219 21.332031-55.90625 21.332031-77.234375 0zm0 0" fill="#fff"/><path d="m170.855469 121.199219v-1.316407c-9.992188 5.296876-36.992188 19.6875-65.71875 35.789063-18.128907 10.160156-36.9375 20.988281-52.628907 30.667969-7.851562 4.84375-14.921874 9.398437-20.777343 13.472656-5.875 4.097656-10.484375 7.617188-13.726563 10.839844-11.984375 11.980468-18.00781225 27.746094-17.99999975 43.449218-.0078125 15.699219 6.01562475 31.460938 17.99999975 43.441407 11.980469 11.984375 27.742188 18.007812 43.445313 17.996093 15.703125.011719 31.464843-6.015624 43.441406-17.996093 3.460937-3.503907 6.765625-8.414063 10.527344-14.738281 6.507812-11.019532 13.988281-26.1875 21.652343-42.878907 22.960938-50.03125 47.398438-113.640625 47.425782-113.710937.636718-1.65625.59375-3.441406-.042969-5.011719h-13.597656zm-36.445313 91.210937c-7.546875 17.292969-15.328125 34.257813-22.316406 47.941406-3.488281 6.839844-6.785156 12.855469-9.707031 17.625-2.894531 4.757813-5.527344 8.3125-7.152344 9.910157-9.347656 9.347656-21.539063 13.992187-33.789063 14.003906-12.25-.011719-24.441406-4.660156-33.785156-14-9.347656-9.351563-13.996094-21.539063-14.003906-33.789063.007812-12.253906 4.65625-24.445312 14-33.792968 2.085938-2.105469 6.332031-5.453125 11.867188-9.285156 19.480468-13.550782 55.09375-33.988282 85.628906-50.867188 15.28125-8.449219 29.324218-16.042969 39.542968-21.515625.121094-.0625.226563-.125.347657-.183594-6.960938 17.566407-18.503907 46.179688-30.632813 73.953125zm0 0" fill="#54596e"/><path d="m399.0625 210.652344c-3.246094-3.226563-7.855469-6.742188-13.726562-10.839844-20.453126-14.207031-56.085938-34.601562-86.820313-51.605469-21.367187-11.816406-40.285156-21.9375-49.832031-27.007812h-16.074219c-.636719 1.570312-.683594 3.359375-.046875 5.015625.019531.042968 14.222656 37 31.128906 76.703125 8.457032 19.855469 17.582032 40.390625 25.996094 57.421875 4.207031 8.519531 8.234375 16.160156 11.960938 22.460937 3.757812 6.324219 7.066406 11.234375 10.523437 14.738281 11.980469 11.980469 27.742187 18.007813 43.445313 17.996094 15.699218.011719 31.464843-6.007812 43.445312-18 11.984375-11.976562 18.003906-27.738281 17.992188-43.4375.011718-15.703125-6.007813-31.464844-17.992188-43.445312zm-9.652344 77.234375c-9.351562 9.34375-21.539062 13.992187-33.789062 14-12.253906-.007813-24.441406-4.65625-33.792969-14-1.871094-1.832031-5.003906-6.199219-8.425781-12.027344-6.066406-10.253906-13.445313-25.171875-21-41.632813-11.339844-24.707031-23.128906-52.96875-32.070313-75.023437-3.183593-7.855469-6-14.90625-8.316406-20.753906 16.039063 8.589843 41.726563 22.511719 66.816406 36.800781 15.847657 9.023438 31.453125 18.191406 44.175781 26.214844 6.359376 4.007812 12 7.730468 16.546876 10.972656 4.539062 3.222656 8.03125 6.03125 9.851562 7.867188 9.34375 9.347656 13.988281 21.539062 13.996094 33.792968-.007813 12.25-4.652344 24.441406-13.992188 33.789063zm0 0" fill="#54596e"/></svg>